<svg width="870" height="660" viewBox="0 0 870 660" fill="none" xmlns="http://www.w3.org/2000/svg">
<g clip-path="url(#clip0_220_13)">
<g clip-path="url(#clip1_220_13)">
<path d="M692.883 377.181C642.596 394.216 615.011 382.277 615.011 382.277C615.011 382.277 615.011 382.277 565.192 420.437C570.93 421.324 593.836 437.756 681.292 408.13C758.987 381.81 774.342 400.365 792.556 401.294C778.615 395.331 743.17 360.146 692.883 377.181Z" fill="#7C3C00" stroke="black"/>
<path d="M507.404 458.547C391.921 469.687 431.146 404.395 544.213 383.696C612.602 371.176 647.355 379.457 681.468 387.586L681.985 387.71C712.024 398.649 780.608 408.367 885.833 539.692C914.946 576.027 900.265 563.89 819.356 521.219C771.124 495.782 665.43 443.302 507.404 458.547Z" fill="url(#paint0_linear_220_13)" stroke="black"/>
<path d="M437.444 443.29C628.384 387.968 822.49 498.733 895.676 561.03C553.488 406.065 486.603 508.965 437.444 443.29Z" fill="black" stroke="black"/>
<path d="M445.745 434.173C594.745 391.854 689.745 397.223 891.745 554.116" stroke="black"/>
<path d="M449.745 426.948C642.745 362.953 732.745 410.433 893.745 553.907" stroke="black"/>
<path d="M457.745 418.691C605.745 361.92 714.745 367.081 895.745 553.907" stroke="black"/>
<path d="M703.745 418.691C651.554 440.694 626.745 436.565 626.745 436.565L599.04 465.553C605.171 467.453 627.93 488.343 720.711 455.621C774.745 436.565 818.392 451.017 837.706 454.033C822.509 443.325 774.745 388.757 703.745 418.691Z" fill="black"/>
</g>
<path d="M491.978 204.864C486.172 210.305 478.443 213.217 470.49 212.961C462.538 212.705 455.014 209.301 449.571 203.497C438.256 191.412 438.864 172.429 450.942 161.11C463.023 149.788 482.001 150.37 493.31 162.447C504.689 174.506 504.057 193.532 491.976 204.867L491.978 204.864Z" fill="#FF7A00"/>
<path d="M458.174 186.637L476.205 169.741ZM472.584 165.876L482.981 176.977C489.765 184.218 481.838 192.533 474.61 184.82C482.528 193.273 474.318 203.873 464.95 193.873C460.373 188.983 455.466 183.753 455.466 183.753M467.829 177.586L474.468 184.67ZM477.411 171.029L481.275 167.41ZM455.512 191.545L459.377 187.923ZM482.235 176.18L486.099 172.561ZM460.339 196.698L464.204 193.076Z" fill="#FF7A00"/>
<path d="M458.174 186.637L476.205 169.741M472.584 165.876L482.981 176.977C489.765 184.218 481.838 192.533 474.61 184.82C482.528 193.273 474.318 203.873 464.95 193.873C460.373 188.983 455.466 183.753 455.466 183.753M467.829 177.586L474.468 184.67M477.411 171.029L481.275 167.41M455.512 191.545L459.377 187.923M482.235 176.18L486.099 172.561M460.339 196.698L464.204 193.076" stroke="white" stroke-width="5" stroke-linecap="square" stroke-linejoin="round"/>
<path d="M644.656 232.108C648.6 239.02 649.638 247.214 647.542 254.889C645.446 262.565 640.388 269.093 633.479 273.039C619.097 281.238 600.774 276.239 592.569 261.862C584.362 247.482 589.336 229.157 603.708 220.963C618.08 212.696 636.439 217.728 644.659 232.111L644.656 232.108Z" fill="#FF7A00"/>
<path d="M619.078 260.756L606.831 239.294ZM602.23 241.918L615.442 234.384C624.061 229.466 630.308 239.108 621.128 244.347C631.188 238.608 639.591 249.055 627.69 255.845C621.87 259.161 615.644 262.72 615.644 262.72M612.516 249.262L620.948 244.45ZM608.363 238.42L605.741 233.821ZM623.233 264.485L620.608 259.884ZM614.494 234.924L611.871 230.326ZM629.366 260.987L626.741 256.386Z" fill="#FF7A00"/>
<path d="M619.078 260.756L606.831 239.294M602.23 241.918L615.442 234.384C624.061 229.466 630.308 239.108 621.128 244.347C631.188 238.608 639.591 249.055 627.69 255.845C621.87 259.161 615.644 262.72 615.644 262.72M612.516 249.262L620.948 244.45M608.363 238.42L605.741 233.821M623.233 264.485L620.608 259.884M614.494 234.924L611.871 230.326M629.366 260.987L626.741 256.386" stroke="white" stroke-width="5" stroke-linecap="square" stroke-linejoin="round"/>
<path d="M366.841 100.139C359.745 96.5383 354.37 90.2674 351.896 82.7051C349.423 75.1429 350.055 66.9084 353.652 59.8121C361.15 45.0514 379.2 39.1441 393.962 46.6342C408.728 54.125 414.658 72.1628 407.166 86.914C399.714 101.725 381.615 107.625 366.838 100.138L366.841 100.139Z" fill="#FF7A00"/>
<path d="M372.436 62.1442L394.472 73.3257ZM396.869 68.603L389.983 82.1641C385.492 91.0129 374.971 86.3996 379.754 76.9732C374.511 87.3008 361.746 83.2015 367.947 70.9826C370.982 65.0119 374.223 58.6142 374.223 58.6142M384.24 68.1305L379.847 76.7881ZM393.673 74.8988L398.393 77.2953ZM366.914 61.3167L371.638 63.7139ZM390.478 81.1912L395.198 83.5876ZM363.718 67.6125L368.442 70.0097Z" fill="#FF7A00"/>
<path d="M372.436 62.1442L394.472 73.3257M396.869 68.603L389.983 82.1641C385.492 91.0129 374.971 86.3996 379.754 76.9732C374.511 87.3008 361.746 83.2015 367.947 70.9826C370.982 65.0119 374.223 58.6142 374.223 58.6142M384.24 68.1305L379.847 76.7881M393.673 74.8988L398.393 77.2953M366.914 61.3167L371.638 63.7139M390.478 81.1912L395.198 83.5876M363.718 67.6125L368.442 70.0097" stroke="white" stroke-width="5" stroke-linecap="square" stroke-linejoin="round"/>
<path d="M397.584 363.58C402.621 369.741 405.005 377.649 404.212 385.566C403.419 393.483 399.515 400.76 393.357 405.798C380.535 416.272 361.637 414.383 351.159 401.568C340.679 388.75 342.541 369.854 355.354 359.387C368.154 348.849 387.094 350.764 397.587 363.582L397.584 363.58Z" fill="#FF7A00"/>
<path d="M377.117 396.076L361.476 376.946ZM357.376 380.297L369.153 370.674C376.836 364.394 384.597 372.865 376.414 379.555C385.382 372.226 395.403 381.133 384.793 389.805C379.605 394.041 374.056 398.584 374.056 398.584M368.737 385.832L376.254 379.687ZM362.843 375.829L359.493 371.73ZM381.833 399.064L378.481 394.963ZM368.308 371.364L364.958 367.265ZM387.3 394.596L383.948 390.495Z" fill="#FF7A00"/>
<path d="M377.117 396.076L361.476 376.946M357.376 380.297L369.153 370.674C376.836 364.394 384.597 372.865 376.414 379.555C385.382 372.226 395.403 381.133 384.793 389.805C379.605 394.041 374.056 398.584 374.056 398.584M368.737 385.832L376.254 379.687M362.843 375.829L359.493 371.73M381.833 399.064L378.481 394.963M368.308 371.364L364.958 367.265M387.3 394.596L383.948 390.495" stroke="white" stroke-width="5" stroke-linecap="square" stroke-linejoin="round"/>
<path d="M805.491 249.218C810.649 255.277 813.191 263.136 812.556 271.067C811.921 278.998 808.163 286.352 802.107 291.512C789.496 302.239 770.564 300.728 759.833 288.124C749.099 275.518 750.584 256.588 763.186 245.868C775.773 235.076 794.747 236.613 805.494 249.22L805.491 249.218Z" fill="#FF7A00"/>
<path d="M785.676 282.116L769.657 263.301ZM765.624 266.733L777.207 256.877C784.764 250.445 792.692 258.759 784.643 265.612C793.464 258.105 803.66 266.811 793.226 275.692C788.123 280.031 782.665 284.683 782.665 284.683M777.094 272.04L784.486 265.747ZM771.001 262.157L767.57 258.126ZM790.451 285.009L787.017 280.975ZM776.376 257.584L772.945 253.552ZM795.828 280.433L792.394 276.399Z" fill="#FF7A00"/>
<path d="M785.676 282.116L769.657 263.301M765.624 266.733L777.207 256.877C784.764 250.445 792.692 258.759 784.643 265.612C793.464 258.105 803.66 266.811 793.226 275.692C788.123 280.031 782.665 284.683 782.665 284.683M777.094 272.04L784.486 265.747M771.001 262.157L767.57 258.126M790.451 285.009L787.017 280.975M776.376 257.584L772.945 253.552M795.828 280.433L792.394 276.399" stroke="white" stroke-width="5" stroke-linecap="square" stroke-linejoin="round"/>
<path d="M677.621 89.9573C682.637 83.78 689.9 79.8473 697.814 79.024C705.727 78.2007 713.644 80.5541 719.822 85.5669C732.67 96.0082 734.639 114.898 724.205 127.749C713.769 140.603 694.887 142.597 682.047 132.164C669.14 121.757 667.188 102.821 677.622 89.9541L677.621 89.9573Z" fill="#FF7A00"/>
<path d="M713.582 103.437L698.006 122.62ZM702.117 125.959L690.313 116.369C682.61 110.113 689.337 100.801 697.544 107.464C688.553 100.161 695.252 88.5472 705.889 97.1855C711.085 101.411 716.656 105.928 716.656 105.928M705.242 113.713L697.705 107.594ZM696.637 121.507L693.299 125.616ZM715.555 98.2136L712.216 102.326ZM691.159 117.057L687.822 121.166ZM710.075 93.762L706.735 97.8742Z" fill="#FF7A00"/>
<path d="M713.582 103.437L698.006 122.62M702.117 125.959L690.313 116.369C682.61 110.113 689.337 100.801 697.544 107.464C688.553 100.161 695.252 88.5472 705.889 97.1855C711.085 101.411 716.656 105.928 716.656 105.928M705.242 113.713L697.705 107.594M696.637 121.507L693.299 125.616M715.555 98.2136L712.216 102.326M691.159 117.057L687.822 121.166M710.075 93.762L706.735 97.8742" stroke="white" stroke-width="5" stroke-linecap="square" stroke-linejoin="round"/>
<g clip-path="url(#clip2_220_13)">
<path d="M-139.143 511.588C-253.388 458.375 -315.587 485.182 -391 511.588V664.097H901V511.588C901 478.75 792.685 531.25 707.25 531.25C615.609 531.25 386.451 448.812 229.086 502.838C174.674 531.444 -44.8571 555.504 -139.143 511.588Z" fill="#FFD18D"/>
<path d="M529.438 533.932C643.683 483.515 825.991 508.914 901.404 533.932V650.901H-390.596C-390.596 650.901 -396.846 752.45 -396.846 558.383C-396.846 472.475 -407.75 512.918 -300.813 512.918C-209.171 512.918 25.5577 434.979 182.923 486.167C237.335 513.27 435.152 575.541 529.438 533.932Z" fill="#FFC086"/>
<path d="M133.366 540.856C-276.722 468.687 -233.664 540.849 -391 563.279V660H901.404V553.189C735.815 456.77 400.934 587.945 133.366 540.856Z" fill="#FFE486"/>
</g>
</g>
<defs>
<linearGradient id="paint0_linear_220_13" x1="442.864" y1="410.439" x2="911.503" y2="490.921" gradientUnits="userSpaceOnUse">
<stop stop-color="#CB7220"/>
<stop offset="1" stop-color="#7C3C00"/>
</linearGradient>
<clipPath id="clip0_220_13">
<rect width="870" height="660" fill="white"/>
</clipPath>
<clipPath id="clip1_220_13">
<rect width="490" height="293" fill="white" transform="translate(431.623 336.12)"/>
</clipPath>
<clipPath id="clip2_220_13">
<rect width="1280" height="323" fill="white" transform="translate(-391 337)"/>
</clipPath>
</defs>
</svg>
