<svg width="320" height="569" viewBox="0 0 320 569" fill="none" xmlns="http://www.w3.org/2000/svg">
<g clip-path="url(#clip0_216_36)">
<g clip-path="url(#clip1_216_36)">
<path d="M231.643 393.163C209.384 401.219 197.174 395.573 197.174 395.573C197.174 395.573 197.174 395.573 175.123 413.619C177.662 414.038 187.802 421.81 226.512 407.799C260.903 395.353 267.7 404.127 275.762 404.566C269.591 401.747 253.902 385.108 231.643 393.163Z" fill="#7C3C00" stroke="black"/>
<path d="M149.544 431.641C98.4268 436.91 115.789 406.033 165.837 396.244C196.108 390.324 211.491 394.24 226.591 398.084L226.819 398.142C240.116 403.316 270.473 407.911 317.05 470.015C329.936 487.197 323.438 481.458 287.625 461.279C266.275 449.249 219.492 424.432 149.544 431.641Z" fill="url(#paint0_linear_216_36)" stroke="black"/>
<path d="M118.577 424.426C203.094 398.265 289.012 450.645 321.407 480.105C169.942 406.823 140.336 455.484 118.577 424.426Z" fill="black" stroke="black"/>
<path d="M122.251 420.115C188.204 400.102 230.254 402.641 319.667 476.836" stroke="black"/>
<path d="M124.022 416.698C209.45 386.435 249.288 408.888 320.552 476.737" stroke="black"/>
<path d="M127.563 412.793C193.073 385.947 241.32 388.387 321.437 476.737" stroke="black"/>
<path d="M236.451 412.793C213.35 423.199 202.368 421.246 202.368 421.246L190.105 434.954C192.819 435.853 202.893 445.731 243.961 430.258C267.878 421.246 287.198 428.081 295.747 429.506C289.02 424.443 267.878 398.638 236.451 412.793Z" fill="black"/>
</g>
<g clip-path="url(#clip2_216_36)">
<path d="M232.174 460.435C260.992 452.275 306.978 456.386 326 460.435V478.355H0.10199V463.381C0.10199 449.476 2.77521 456.022 24.3256 456.022C47.4415 456.022 105.074 443.408 144.768 451.692C158.493 456.079 208.391 467.169 232.174 460.435Z" fill="#FFD18D"/>
<path d="M63.5292 455.943C34.7116 446.303 19.0225 451.16 0 455.943V480.043H325.898V450.828C325.898 434.402 298.405 455.943 276.855 455.943C253.739 455.943 196.107 441.041 156.412 450.828C142.687 456.011 87.3121 463.899 63.5292 455.943Z" fill="#FFC086" fill-opacity="0.41"/>
<path d="M137 465.742C29 442.548 47 465.742 -3 465.742V578.653H323V465.742C263 420.809 211.184 481.673 137 465.742Z" fill="#FFE486"/>
</g>
<g clip-path="url(#clip3_216_36)">
<path d="M82.8204 255.813C85.3386 258.894 86.5306 262.848 86.1342 266.806C85.7379 270.764 83.7857 274.403 80.7068 276.922C74.2958 282.159 64.8467 281.215 59.6079 274.807C54.3676 268.398 55.2989 258.95 61.7053 253.717C68.1053 248.447 77.5752 249.405 82.8218 255.814L82.8204 255.813Z" fill="#FF7A00"/>
<path d="M72.5865 272.061L64.7665 262.496L72.5865 272.061ZM62.716 264.172L68.6049 259.36C72.4464 256.22 76.3268 260.455 72.235 263.801C76.7192 260.136 81.7297 264.589 76.4249 268.925C73.8309 271.043 71.0561 273.315 71.0561 273.315M68.397 266.939L72.1551 263.866L68.397 266.939ZM65.4496 261.938L63.7747 259.888L65.4496 261.938ZM74.9449 273.555L73.2686 271.504L74.9449 273.555ZM68.1821 259.705L66.5072 257.655L68.1821 259.705ZM77.6785 271.321L76.0022 269.27L77.6785 271.321Z" fill="#FF7A00"/>
<path d="M72.5865 272.061L64.7665 262.496M62.716 264.172L68.6049 259.36C72.4464 256.22 76.3268 260.455 72.235 263.801C76.7192 260.136 81.7297 264.589 76.4249 268.925C73.8309 271.043 71.0561 273.315 71.0561 273.315M68.397 266.939L72.1551 263.866M65.4496 261.938L63.7747 259.888M74.9449 273.555L73.2686 271.504M68.1821 259.705L66.5072 257.655M77.6785 271.321L76.0022 269.27" stroke="white" stroke-width="2" stroke-linecap="square" stroke-linejoin="round"/>
<path d="M128.436 309.062C130.954 312.143 132.146 316.097 131.75 320.055C131.354 324.014 129.401 327.653 126.323 330.172C119.912 335.408 110.462 334.464 105.224 328.056C99.9833 321.647 100.915 312.199 107.321 306.966C113.721 301.697 123.191 302.654 128.438 309.064L128.436 309.062Z" fill="#FF7A00"/>
<path d="M118.202 325.311L110.382 315.745L118.202 325.311ZM108.332 317.421L114.221 312.609C118.062 309.469 121.942 313.705 117.851 317.05C122.335 313.385 127.345 317.839 122.041 322.175C119.447 324.293 116.672 326.564 116.672 326.564M114.013 320.188L117.771 317.116L114.013 320.188ZM111.065 315.187L109.39 313.137L111.065 315.187ZM120.561 326.804L118.884 324.754L120.561 326.804ZM113.798 312.954L112.123 310.905L113.798 312.954ZM123.294 324.57L121.618 322.52L123.294 324.57Z" fill="#FF7A00"/>
<path d="M118.202 325.311L110.382 315.745M108.332 317.421L114.221 312.609C118.062 309.469 121.942 313.705 117.851 317.05C122.335 313.385 127.345 317.839 122.041 322.175C119.447 324.293 116.672 326.564 116.672 326.564M114.013 320.188L117.771 317.116M111.065 315.187L109.39 313.137M120.561 326.804L118.884 324.754M113.798 312.954L112.123 310.905M123.294 324.57L121.618 322.52" stroke="white" stroke-width="2" stroke-linecap="square" stroke-linejoin="round"/>
<path d="M201.153 340.608C203.671 343.689 204.863 347.643 204.467 351.601C204.07 355.56 202.118 359.198 199.039 361.717C192.628 366.954 183.179 366.01 177.94 359.602C172.7 353.193 173.631 343.745 180.038 338.512C186.438 333.243 195.907 334.2 201.154 340.609L201.153 340.608Z" fill="#FF7A00"/>
<path d="M190.919 356.856L183.099 347.291L190.919 356.856ZM181.048 348.967L186.937 344.155C190.779 341.015 194.659 345.25 190.567 348.596C195.052 344.931 200.062 349.385 194.757 353.721C192.163 355.839 189.388 358.11 189.388 358.11M186.729 351.734L190.487 348.662L186.729 351.734ZM183.782 346.733L182.107 344.683L183.782 346.733ZM193.277 358.35L191.601 356.3L193.277 358.35ZM186.514 344.5L184.839 342.451L186.514 344.5ZM196.011 356.116L194.334 354.066L196.011 356.116Z" fill="#FF7A00"/>
<path d="M190.919 356.856L183.099 347.291M181.048 348.967L186.937 344.155C190.779 341.015 194.659 345.25 190.567 348.596C195.052 344.931 200.062 349.385 194.757 353.721C192.163 355.839 189.388 358.11 189.388 358.11M186.729 351.734L190.487 348.662M183.782 346.733L182.107 344.683M193.277 358.35L191.601 356.3M186.514 344.5L184.839 342.451M196.011 356.116L194.334 354.066" stroke="white" stroke-width="2" stroke-linecap="square" stroke-linejoin="round"/>
<path d="M100.765 393.19C103.284 396.271 104.476 400.225 104.079 404.183C103.683 408.142 101.731 411.78 98.6519 414.299C92.2409 419.536 82.7918 418.592 77.5529 412.184C72.3127 405.775 73.244 396.327 79.6504 391.094C86.0503 385.825 95.5203 386.782 100.767 393.191L100.765 393.19Z" fill="#FF7A00"/>
<path d="M90.5316 409.438L82.7115 399.873L90.5316 409.438ZM80.6611 401.549L86.5499 396.737C90.3915 393.597 94.2718 397.832 90.1801 401.178C94.6643 397.513 99.6747 401.967 94.37 406.303C91.7759 408.42 89.0012 410.692 89.0012 410.692M86.3421 404.316L90.1001 401.244L86.3421 404.316ZM83.3947 399.315L81.7198 397.265L83.3947 399.315ZM92.89 410.932L91.2137 408.882L92.89 410.932ZM86.1272 397.082L84.4523 395.033L86.1272 397.082ZM95.6235 408.698L93.9472 406.648L95.6235 408.698Z" fill="#FF7A00"/>
<path d="M90.5316 409.438L82.7115 399.873M80.6611 401.549L86.5499 396.737C90.3915 393.597 94.2718 397.832 90.1801 401.178C94.6643 397.513 99.6747 401.967 94.37 406.303C91.7759 408.42 89.0012 410.692 89.0012 410.692M86.3421 404.316L90.1001 401.244M83.3947 399.315L81.7198 397.265M92.89 410.932L91.2137 408.882M86.1272 397.082L84.4523 395.033M95.6235 408.698L93.9472 406.648" stroke="white" stroke-width="2" stroke-linecap="square" stroke-linejoin="round"/>
<path d="M290.04 354.209C292.559 357.29 293.751 361.244 293.354 365.202C292.958 369.161 291.006 372.799 287.927 375.318C281.516 380.555 272.067 379.611 266.828 373.203C261.588 366.794 262.519 357.346 268.925 352.113C275.325 346.844 284.795 347.801 290.042 354.21L290.04 354.209Z" fill="#FF7A00"/>
<path d="M279.806 370.457L271.986 360.892L279.806 370.457ZM269.936 362.568L275.825 357.756C279.666 354.616 283.547 358.851 279.455 362.197C283.939 358.532 288.95 362.986 283.645 367.321C281.051 369.439 278.276 371.711 278.276 371.711M275.617 365.335L279.375 362.262L275.617 365.335ZM272.67 360.334L270.995 358.284L272.67 360.334ZM282.165 371.951L280.489 369.901L282.165 371.951ZM275.402 358.101L273.727 356.052L275.402 358.101ZM284.898 369.717L283.222 367.667L284.898 369.717Z" fill="#FF7A00"/>
<path d="M279.806 370.457L271.986 360.892M269.936 362.568L275.825 357.756C279.666 354.616 283.547 358.851 279.455 362.197C283.939 358.532 288.95 362.986 283.645 367.321C281.051 369.439 278.276 371.711 278.276 371.711M275.617 365.335L279.375 362.262M272.67 360.334L270.995 358.284M282.165 371.951L280.489 369.901M275.402 358.101L273.727 356.052M284.898 369.717L283.222 367.667" stroke="white" stroke-width="2" stroke-linecap="square" stroke-linejoin="round"/>
<path d="M243.139 242.298C245.657 245.378 246.849 249.333 246.453 253.291C246.056 257.249 244.104 260.888 241.025 263.407C234.614 268.644 225.165 267.7 219.926 261.292C214.686 254.883 215.617 245.435 222.024 240.202C228.424 234.932 237.894 235.89 243.14 242.299L243.139 242.298Z" fill="#FF7A00"/>
<path d="M232.905 258.546L225.085 248.981L232.905 258.546ZM223.034 250.657L228.923 245.845C232.765 242.705 236.645 246.94 232.553 250.286C237.038 246.621 242.048 251.074 236.743 255.41C234.149 257.528 231.374 259.8 231.374 259.8M228.715 253.424L232.473 250.351L228.715 253.424ZM225.768 248.423L224.093 246.373L225.768 248.423ZM235.263 260.04L233.587 257.989L235.263 260.04ZM228.5 246.19L226.826 244.14L228.5 246.19ZM237.997 257.806L236.321 255.755L237.997 257.806Z" fill="#FF7A00"/>
<path d="M232.905 258.546L225.085 248.981M223.034 250.657L228.923 245.845C232.765 242.705 236.645 246.94 232.553 250.286C237.038 246.621 242.048 251.074 236.743 255.41C234.149 257.528 231.374 259.8 231.374 259.8M228.715 253.424L232.473 250.351M225.768 248.423L224.093 246.373M235.263 260.04L233.587 257.989M228.5 246.19L226.826 244.14M237.997 257.806L236.321 255.755" stroke="white" stroke-width="2" stroke-linecap="square" stroke-linejoin="round"/>
</g>
</g>
<defs>
<linearGradient id="paint0_linear_216_36" x1="120.976" y1="408.891" x2="329.151" y2="442.355" gradientUnits="userSpaceOnUse">
<stop stop-color="#CB7220"/>
<stop offset="1" stop-color="#7C3C00"/>
</linearGradient>
<clipPath id="clip0_216_36">
<rect width="320" height="568" fill="white" transform="translate(0 0.948425)"/>
</clipPath>
<clipPath id="clip1_216_36">
<rect width="204" height="107" fill="white" transform="translate(116 373.746)"/>
</clipPath>
<clipPath id="clip2_216_36">
<rect width="320" height="147" fill="white" transform="translate(0 431.653)"/>
</clipPath>
<clipPath id="clip3_216_36">
<rect width="276" height="407" fill="white" transform="translate(19.7471 45.2458)"/>
</clipPath>
</defs>
</svg>
