<svg width="1280" height="720" viewBox="0 0 1280 720" fill="none" xmlns="http://www.w3.org/2000/svg">
<g clip-path="url(#clip0_216_3)">
<g clip-path="url(#clip1_216_3)">
<path d="M881.883 444.53C831.596 461.565 804.011 449.626 804.011 449.626C804.011 449.626 804.011 449.626 754.192 487.786C759.93 488.673 782.836 505.106 870.291 475.479C947.987 449.159 963.342 467.714 981.556 468.643C967.615 462.68 932.17 427.495 881.883 444.53Z" fill="#7C3C00" stroke="black"/>
<path d="M696.404 525.896C580.921 537.036 620.146 471.744 733.213 451.045C801.601 438.525 836.355 446.806 870.468 454.936L870.985 455.059C901.023 465.998 969.608 475.716 1074.83 607.041C1103.95 643.376 1089.26 631.239 1008.36 588.568C960.123 563.131 854.43 510.652 696.404 525.896Z" fill="url(#paint0_linear_216_3)" stroke="black"/>
<path d="M626.443 510.639C817.384 455.317 1011.49 566.082 1084.68 628.379C742.487 473.414 675.602 576.314 626.443 510.639Z" fill="black" stroke="black"/>
<path d="M634.745 501.523C783.745 459.203 878.745 464.572 1080.74 621.465" stroke="black"/>
<path d="M638.745 494.297C831.745 430.302 921.745 477.782 1082.74 621.256" stroke="black"/>
<path d="M646.745 486.04C794.745 429.269 903.745 434.43 1084.74 621.256" stroke="black"/>
<path d="M892.745 486.04C840.554 508.044 815.745 503.914 815.745 503.914L788.039 532.902C794.17 534.802 816.93 555.692 909.71 522.97C963.745 503.914 1007.39 518.366 1026.71 521.382C1011.51 510.674 963.745 456.106 892.745 486.04Z" fill="black"/>
</g>
<path d="M696.248 283.083C690.442 288.524 682.713 291.436 674.76 291.18C666.808 290.924 659.284 287.52 653.841 281.716C642.526 269.631 643.134 250.648 655.212 239.329C667.293 228.007 686.271 228.589 697.58 240.666C708.959 252.725 708.327 271.751 696.246 283.086L696.248 283.083Z" fill="#FF7A00"/>
<path d="M662.444 264.856L680.475 247.96L662.444 264.856ZM676.854 244.095L687.251 255.196C694.035 262.437 686.108 270.752 678.88 263.039C686.798 271.492 678.588 282.092 669.22 272.092C664.643 267.202 659.736 261.972 659.736 261.972M672.1 255.805L678.738 262.889L672.1 255.805ZM681.681 249.248L685.545 245.629L681.681 249.248ZM659.782 269.764L663.647 266.142L659.782 269.764ZM686.505 254.399L690.369 250.78L686.505 254.399ZM664.609 274.917L668.474 271.295L664.609 274.917Z" fill="#FF7A00"/>
<path d="M662.444 264.856L680.475 247.96M676.854 244.095L687.251 255.196C694.035 262.437 686.108 270.752 678.88 263.039C686.798 271.492 678.588 282.092 669.22 272.092C664.643 267.202 659.736 261.972 659.736 261.972M672.1 255.805L678.738 262.889M681.681 249.248L685.545 245.629M659.782 269.764L663.647 266.142M686.505 254.399L690.369 250.78M664.609 274.917L668.474 271.295" stroke="white" stroke-width="5" stroke-linecap="square" stroke-linejoin="round"/>
<path d="M848.926 310.327C852.87 317.239 853.908 325.433 851.812 333.108C849.716 340.784 844.658 347.312 837.749 351.258C823.366 359.457 805.044 354.458 796.839 340.081C788.632 325.701 793.605 307.377 807.978 299.182C822.35 290.915 840.709 295.948 848.929 310.33L848.926 310.327Z" fill="#FF7A00"/>
<path d="M823.348 338.975L811.101 317.513L823.348 338.975ZM806.5 320.137L819.712 312.603C828.331 307.685 834.578 317.327 825.397 322.566C835.458 316.827 843.861 327.274 831.959 334.065C826.14 337.38 819.913 340.939 819.913 340.939M816.786 327.481L825.218 322.669L816.786 327.481ZM812.633 316.639L810.011 312.041L812.633 316.639ZM827.503 342.704L824.878 338.103L827.503 342.704ZM818.764 313.143L816.141 308.545L818.764 313.143ZM833.636 339.206L831.011 334.605L833.636 339.206Z" fill="#FF7A00"/>
<path d="M823.348 338.975L811.101 317.513M806.5 320.137L819.712 312.603C828.331 307.685 834.578 317.327 825.397 322.566C835.458 316.827 843.861 327.274 831.959 334.065C826.14 337.38 819.913 340.939 819.913 340.939M816.786 327.481L825.218 322.669M812.633 316.639L810.011 312.041M827.503 342.704L824.878 338.103M818.764 313.143L816.141 308.545M833.636 339.206L831.011 334.605" stroke="white" stroke-width="5" stroke-linecap="square" stroke-linejoin="round"/>
<path d="M571.111 178.358C564.015 174.757 558.639 168.486 556.166 160.924C553.693 153.362 554.324 145.127 557.922 138.031C565.42 123.27 583.47 117.363 598.232 124.853C612.998 132.344 618.928 150.382 611.436 165.133C603.984 179.944 585.885 185.844 571.108 178.358L571.111 178.358Z" fill="#FF7A00"/>
<path d="M576.706 140.363L598.742 151.545L576.706 140.363ZM601.139 146.822L594.253 160.383C589.762 169.232 579.241 164.619 584.023 155.192C578.78 165.52 566.015 161.421 572.217 149.202C575.252 143.231 578.493 136.833 578.493 136.833M588.51 146.35L584.117 155.007L588.51 146.35ZM597.943 153.118L602.663 155.514L597.943 153.118ZM571.184 139.536L575.908 141.933L571.184 139.536ZM594.748 159.41L599.468 161.807L594.748 159.41ZM567.988 145.832L572.712 148.229L567.988 145.832Z" fill="#FF7A00"/>
<path d="M576.706 140.363L598.742 151.545M601.139 146.822L594.253 160.383C589.762 169.232 579.241 164.619 584.023 155.192C578.78 165.52 566.015 161.421 572.217 149.202C575.252 143.231 578.493 136.833 578.493 136.833M588.51 146.35L584.117 155.007M597.943 153.118L602.663 155.514M571.184 139.536L575.908 141.933M594.748 159.41L599.468 161.807M567.988 145.832L572.712 148.229" stroke="white" stroke-width="5" stroke-linecap="square" stroke-linejoin="round"/>
<path d="M601.854 441.799C606.89 447.96 609.274 455.868 608.482 463.785C607.689 471.702 603.784 478.979 597.627 484.017C584.805 494.491 565.907 492.602 555.429 479.787C544.948 466.969 546.811 448.073 559.624 437.606C572.424 427.068 591.364 428.983 601.857 441.801L601.854 441.799Z" fill="#FF7A00"/>
<path d="M581.386 474.295L565.746 455.165L581.386 474.295ZM561.645 458.516L573.423 448.893C581.106 442.613 588.867 451.084 580.683 457.774C589.652 450.445 599.672 459.352 589.063 468.024C583.875 472.26 578.325 476.803 578.325 476.803M573.007 464.051L580.523 457.906L573.007 464.051ZM567.112 454.048L563.763 449.949L567.112 454.048ZM586.103 477.283L582.75 473.182L586.103 477.283ZM572.577 449.583L569.228 445.484L572.577 449.583ZM591.57 472.815L588.217 468.714L591.57 472.815Z" fill="#FF7A00"/>
<path d="M581.386 474.295L565.746 455.165M561.645 458.516L573.423 448.893C581.106 442.613 588.867 451.084 580.683 457.774C589.652 450.445 599.672 459.352 589.063 468.024C583.875 472.26 578.325 476.803 578.325 476.803M573.007 464.051L580.523 457.906M567.112 454.048L563.763 449.949M586.103 477.283L582.75 473.182M572.577 449.583L569.228 445.484M591.57 472.815L588.217 468.714" stroke="white" stroke-width="5" stroke-linecap="square" stroke-linejoin="round"/>
<path d="M1009.76 327.437C1014.92 333.496 1017.46 341.355 1016.83 349.286C1016.19 357.217 1012.43 364.571 1006.38 369.731C993.766 380.458 974.834 378.947 964.103 366.343C953.369 353.737 954.854 334.807 967.456 324.087C980.043 313.295 999.017 314.833 1009.76 327.439L1009.76 327.437Z" fill="#FF7A00"/>
<path d="M989.945 360.335L973.927 341.52L989.945 360.335ZM969.894 344.952L981.477 335.096C989.033 328.664 996.962 336.978 988.913 343.831C997.734 336.324 1007.93 345.03 997.496 353.911C992.393 358.25 986.935 362.902 986.935 362.902M981.364 350.259L988.756 343.966L981.364 350.259ZM975.271 340.376L971.84 336.345L975.271 340.376ZM994.721 363.228L991.287 359.194L994.721 363.228ZM980.645 335.803L977.215 331.772L980.645 335.803ZM1000.1 358.652L996.664 354.618L1000.1 358.652Z" fill="#FF7A00"/>
<path d="M989.945 360.335L973.927 341.52M969.894 344.952L981.477 335.096C989.033 328.664 996.962 336.978 988.913 343.831C997.734 336.324 1007.93 345.03 997.496 353.911C992.393 358.25 986.935 362.902 986.935 362.902M981.364 350.259L988.756 343.966M975.271 340.376L971.84 336.345M994.721 363.228L991.287 359.194M980.645 335.803L977.215 331.772M1000.1 358.652L996.664 354.618" stroke="white" stroke-width="5" stroke-linecap="square" stroke-linejoin="round"/>
<path d="M881.89 168.176C886.906 161.999 894.17 158.066 902.084 157.243C909.997 156.42 917.913 158.773 924.092 163.786C936.94 174.227 938.909 193.117 928.475 205.968C918.039 218.823 899.157 220.816 886.317 210.383C873.409 199.976 871.458 181.04 881.892 168.173L881.89 168.176Z" fill="#FF7A00"/>
<path d="M917.852 181.656L902.276 200.839L917.852 181.656ZM906.387 204.178L894.583 194.588C886.88 188.332 893.607 179.02 901.814 185.683C892.824 178.38 899.522 166.766 910.159 175.405C915.355 179.63 920.926 184.147 920.926 184.147M909.512 191.932L901.975 185.813L909.512 191.932ZM900.907 199.726L897.569 203.835L900.907 199.726ZM919.825 176.433L916.486 180.545L919.825 176.433ZM895.429 195.276L892.092 199.385L895.429 195.276ZM914.345 171.981L911.005 176.093L914.345 171.981Z" fill="#FF7A00"/>
<path d="M917.852 181.656L902.276 200.839M906.387 204.178L894.583 194.588C886.88 188.332 893.607 179.02 901.814 185.683C892.824 178.38 899.522 166.766 910.159 175.405C915.355 179.63 920.926 184.147 920.926 184.147M909.512 191.932L901.975 185.813M900.907 199.726L897.569 203.835M919.825 176.433L916.486 180.545M895.429 195.276L892.092 199.385M914.345 171.981L911.005 176.093" stroke="white" stroke-width="5" stroke-linecap="square" stroke-linejoin="round"/>
<g clip-path="url(#clip2_216_3)">
<path d="M251.857 578.057C137.612 524.844 75.4132 551.651 0 578.057V730.566H1292V578.057C1292 545.219 1183.69 597.719 1098.25 597.719C1006.61 597.719 777.451 515.281 620.086 569.307C565.674 597.913 346.143 621.973 251.857 578.057Z" fill="#FFD18D"/>
<path d="M920.438 600.401C1034.68 549.984 1216.99 575.383 1292.4 600.401V717.37H0.404297C0.404297 717.37 -5.8457 818.919 -5.8457 624.851C-5.8457 538.943 -16.75 579.387 90.1873 579.387C181.829 579.387 416.558 501.448 573.923 552.635C628.335 579.738 826.152 642.009 920.438 600.401Z" fill="#FFC086"/>
<path d="M524.366 607.325C114.278 535.155 157.336 607.318 0 629.748V726.469H1292.4V619.658C1126.81 523.239 791.934 654.414 524.366 607.325Z" fill="#FFE486"/>
</g>
</g>
<defs>
<linearGradient id="paint0_linear_216_3" x1="631.864" y1="477.788" x2="1100.5" y2="558.27" gradientUnits="userSpaceOnUse">
<stop stop-color="#CB7220"/>
<stop offset="1" stop-color="#7C3C00"/>
</linearGradient>
<clipPath id="clip0_216_3">
<rect width="1280" height="720" fill="white"/>
</clipPath>
<clipPath id="clip1_216_3">
<rect width="490" height="293" fill="white" transform="translate(620.622 403.469)"/>
</clipPath>
<clipPath id="clip2_216_3">
<rect width="1280" height="323" fill="white" transform="translate(0 403.469)"/>
</clipPath>
</defs>
</svg>
