<svg width="61" height="61" viewBox="0 0 61 61" fill="none" xmlns="http://www.w3.org/2000/svg">
<path d="M59.9854 37.4471C58.061 45.1683 53.1496 51.8091 46.3311 55.9095C39.5126 60.0098 31.3452 61.2341 23.6245 59.313C7.56174 55.3027 -2.22909 39.0286 1.77336 22.9663C5.77582 6.90042 22.0327 -2.90996 38.0849 1.0968C54.1865 5.0506 63.9808 21.3742 59.9854 37.4506V37.4471Z" fill="#FF7A00"/>
<path d="M21.7009 40.483L27.6763 16.506ZM22.5374 15.2246L37.2942 18.9065C46.9227 21.3071 44.7768 32.5931 34.52 30.0372C45.758 32.8402 44.6144 46.1984 31.3188 42.8835C24.821 41.2597 17.8608 39.5299 17.8608 39.5299M24.8986 27.6402L34.3188 29.9878ZM29.3881 16.9332L30.6693 11.7968ZM22.1279 46.0501L23.4092 40.9102ZM36.2354 18.6418L37.5166 13.5054ZM28.9787 47.7587L30.2599 42.6188Z" fill="#FF7A00"/>
<path d="M21.7009 40.483L27.6763 16.506M22.5374 15.2246L37.2942 18.9065C46.9227 21.3071 44.7768 32.5931 34.52 30.0372C45.758 32.8402 44.6144 46.1984 31.3188 42.8835C24.821 41.2597 17.8608 39.5299 17.8608 39.5299M24.8986 27.6402L34.3188 29.9878M29.3881 16.9332L30.6693 11.7968M22.1279 46.0501L23.4092 40.9102M36.2354 18.6418L37.5166 13.5054M28.9787 47.7587L30.2599 42.6188" stroke="white" stroke-width="5" stroke-linecap="square" stroke-linejoin="round"/>
</svg>
