<svg width="131" height="130" viewBox="0 0 131 130" fill="none" xmlns="http://www.w3.org/2000/svg">
<rect x="2.9043" y="2.5" width="125" height="125" rx="62.5" fill="#FF0037"/>
<path d="M92.2793 54.375H76.0293V38.125C76.0293 37.4375 75.4668 36.875 74.7793 36.875H38.5293C37.8418 36.875 37.2793 37.4375 37.2793 38.125V74.375C37.2793 75.0625 37.8418 75.625 38.5293 75.625H54.7793V91.875C54.7793 92.5625 55.3418 93.125 56.0293 93.125H92.2793C92.9668 93.125 93.5293 92.5625 93.5293 91.875V55.625C93.5293 54.9375 92.9668 54.375 92.2793 54.375ZM54.7793 55.625V70.3125H42.5918V42.1875H70.7168V54.375H56.0293C55.3418 54.375 54.7793 54.9375 54.7793 55.625ZM70.7168 59.6875V70.3125H60.0918V59.6875H70.7168ZM88.2168 87.8125H60.0918V75.625H74.7793C75.4668 75.625 76.0293 75.0625 76.0293 74.375V59.6875H88.2168V87.8125Z" fill="#010036"/>
<rect x="2.9043" y="2.5" width="125" height="125" rx="62.5" stroke="#010036" stroke-width="5"/>
</svg>
