<svg width="131" height="130" viewBox="0 0 131 130" fill="none" xmlns="http://www.w3.org/2000/svg">
<rect x="2.9043" y="2.5" width="125" height="125" rx="62.5" fill="#FF0037"/>
<path d="M70.8965 73.875L82.4512 60.8828H77.498L70.8965 73.875ZM77.9277 58.0703H82.8105L75.6152 49.0781L77.9277 58.0703ZM56.4668 60.8828L65.4043 78.4766L74.3418 60.8828H56.4668ZM65.4043 30C46.0762 30 30.4043 45.6719 30.4043 65C30.4043 84.3281 46.0762 100 65.4043 100C84.7324 100 100.404 84.3281 100.404 65C100.404 45.6719 84.7324 30 65.4043 30ZM87.8027 59.7031L65.7012 84.5547C65.623 84.6406 65.5137 84.6875 65.4043 84.6875C65.2949 84.6875 65.1855 84.6406 65.1074 84.5547L43.0059 59.7031C42.9431 59.6327 42.9072 59.5424 42.9043 59.4482C42.9014 59.3539 42.9319 59.2616 42.9902 59.1875L53.9668 45.4688C54.0449 45.375 54.1543 45.3203 54.2793 45.3203H76.5137C76.6387 45.3203 76.748 45.375 76.8262 45.4688L87.8027 59.1875C87.867 59.258 87.9026 59.3499 87.9026 59.4453C87.9026 59.5407 87.867 59.6326 87.8027 59.7031ZM72.9199 58.0703L65.4043 50.4766L57.8887 58.0703H72.9199ZM58.2402 48.5234L56.4355 55.5391L63.373 48.5234H58.2402ZM72.5684 48.5234H67.4355L74.373 55.5391L72.5684 48.5234ZM55.1934 49.0781L47.998 58.0703H52.8809L55.1934 49.0781ZM48.3574 60.8828L59.9121 73.875L53.3105 60.8828H48.3574Z" fill="#010036"/>
<rect x="2.9043" y="2.5" width="125" height="125" rx="62.5" stroke="#010036" stroke-width="5"/>
</svg>
