<svg width="131" height="130" viewBox="0 0 131 130" fill="none" xmlns="http://www.w3.org/2000/svg">
<rect x="2.9043" y="2.5" width="125" height="125" rx="62.5" fill="#FF0037"/>
<path d="M72.9091 33.7451C59.7919 33.7451 49.1591 44.3779 49.1591 57.4951C49.1591 62.9873 51.0263 68.042 54.1513 72.0654L50.9404 75.2764L46.0732 70.4092C45.9542 70.2928 45.7943 70.2276 45.6279 70.2276C45.4614 70.2276 45.3015 70.2928 45.1825 70.4092L42.0732 73.5186C41.9567 73.6375 41.8915 73.7974 41.8915 73.9639C41.8915 74.1303 41.9567 74.2902 42.0732 74.4092L46.9404 79.2764L43.4325 82.7842L38.5654 77.917C38.4464 77.8006 38.2865 77.7354 38.12 77.7354C37.9536 77.7354 37.7937 77.8006 37.6747 77.917L34.5654 81.0264C34.4489 81.1454 34.3837 81.3052 34.3837 81.4717C34.3837 81.6382 34.4489 81.798 34.5654 81.917L39.4325 86.7842L34.331 91.8857C34.2147 92.0032 34.1494 92.1618 34.1494 92.3272C34.1494 92.4925 34.2147 92.6511 34.331 92.7686L37.6357 96.0732C37.8779 96.3154 38.2763 96.3154 38.5185 96.0732L58.331 76.2607C62.5017 79.4957 67.6309 81.2494 72.9091 81.2451C86.0263 81.2451 96.6591 70.6123 96.6591 57.4951C96.6591 44.3779 86.0263 33.7451 72.9091 33.7451ZM85.5029 70.0889C82.1435 73.4561 77.6669 75.3076 72.9091 75.3076C68.1513 75.3076 63.6747 73.4561 60.3154 70.0889C56.9482 66.7295 55.0966 62.2529 55.0966 57.4951C55.0966 52.7373 56.9482 48.2607 60.3154 44.9014C63.6747 41.5342 68.1513 39.6826 72.9091 39.6826C77.6669 39.6826 82.1435 41.5342 85.5029 44.9014C88.87 48.2607 90.7216 52.7373 90.7216 57.4951C90.7216 62.2529 88.87 66.7295 85.5029 70.0889Z" fill="#010036"/>
<rect x="2.9043" y="2.5" width="125" height="125" rx="62.5" stroke="#010036" stroke-width="5"/>
</svg>
