<svg width="131" height="130" viewBox="0 0 131 130" fill="none" xmlns="http://www.w3.org/2000/svg">
<rect x="2.9043" y="2.5" width="125" height="125" rx="62.5" fill="#FF0037"/>
<path d="M56.0918 65C56.0918 67.3846 57.0391 69.6716 58.7253 71.3578C60.4115 73.044 62.6985 73.9913 65.0832 73.9913C67.4678 73.9913 69.7548 73.044 71.441 71.3578C73.1272 69.6716 74.0745 67.3846 74.0745 65C74.0745 62.6153 73.1272 60.3283 71.441 58.6421C69.7548 56.9559 67.4678 56.0086 65.0832 56.0086C62.6985 56.0086 60.4115 56.9559 58.7253 58.6421C57.0391 60.3283 56.0918 62.6153 56.0918 65ZM99.9407 62.9288C92.3301 46.8969 80.826 38.8287 65.4043 38.8287C49.9745 38.8287 38.4784 46.8969 30.8679 62.9368C30.5626 63.5832 30.4043 64.2891 30.4043 65.004C30.4043 65.7188 30.5626 66.4248 30.8679 67.0712C38.4784 83.1031 49.9825 91.1712 65.4043 91.1712C80.8341 91.1712 92.3301 83.1031 99.9407 67.0632C100.559 65.7626 100.559 64.2534 99.9407 62.9288ZM65.0832 79.1292C57.28 79.1292 50.9539 72.8032 50.9539 65C50.9539 57.1968 57.28 50.8707 65.0832 50.8707C72.8864 50.8707 79.2124 57.1968 79.2124 65C79.2124 72.8032 72.8864 79.1292 65.0832 79.1292Z" fill="#010036"/>
<rect x="2.9043" y="2.5" width="125" height="125" rx="62.5" stroke="#010036" stroke-width="5"/>
</svg>
